# Blender 3.1.0
# www.blender.org
mtllib car.mtl
o Cube
v -0.235610 0.578504 -1.008252
v -0.235610 0.107283 -1.008252
v 0.235610 0.578504 -1.008252
v 0.235610 0.107283 -1.008252
v -0.235610 0.408270 0.578339
v -0.235610 0.107283 1.008252
v 0.235610 0.408270 0.578339
v 0.235610 0.107283 1.008252
v 0.235610 0.257776 0.793295
v 0.235610 0.342893 -1.008252
v 0.235610 0.493387 -0.214957
v 0.235610 0.107283 -0.000000
v 0.235610 0.300335 -0.107478
v 0.235610 0.333023 0.685817
v 0.235610 0.225088 -1.008252
v 0.235610 0.450828 0.181691
v 0.235610 0.107283 -0.504126
v 0.235610 0.182530 0.900774
v 0.235610 0.460698 -1.008252
v 0.235610 0.535945 -0.611604
v 0.235610 0.107283 0.504126
v 0.235610 0.279055 0.342908
v 0.235610 0.321614 -0.557865
v 0.235610 0.203809 -0.053739
v 0.235610 0.396861 -0.161218
v 0.235610 0.428780 -0.584735
v 0.235610 0.214448 -0.530996
v 0.235610 0.193169 0.423517
v 0.235610 0.364942 0.262300
v -0.235610 0.107283 0.000000
v -0.235610 0.342893 -1.008252
v -0.235610 0.257776 0.793295
v -0.235610 0.493387 -0.214957
v -0.235610 0.300335 -0.107478
v -0.235610 0.107283 0.504126
v -0.235610 0.225088 -1.008252
v -0.235610 0.182530 0.900774
v -0.235610 0.535945 -0.611604
v -0.235610 0.107283 -0.504126
v -0.235610 0.460698 -1.008252
v -0.235610 0.333023 0.685817
v -0.235610 0.450828 0.181691
v -0.235610 0.321614 -0.557865
v -0.235610 0.279055 0.342908
v -0.235610 0.203809 -0.053739
v -0.235610 0.396861 -0.161218
v -0.235610 0.364942 0.262300
v -0.235610 0.193169 0.423517
v -0.235610 0.214448 -0.530996
v -0.235610 0.428780 -0.584735
v 0.235610 0.220153 0.847034
v 0.235610 0.268416 0.568102
v 0.235610 0.187849 0.662145
v 0.235610 0.236112 0.383213
v 0.235610 0.228133 0.615124
v -0.235610 0.220153 0.847034
v -0.235610 0.268416 0.568102
v -0.235610 0.187849 0.662145
v -0.235610 0.236112 0.383213
v -0.235610 0.228133 0.615124
v 0.235610 0.310974 -0.332672
v 0.235610 0.252072 -0.080609
v 0.235610 0.209129 -0.292367
v 0.235610 0.268031 -0.544430
v 0.235610 0.260051 -0.312520
v -0.235610 0.310974 -0.332672
v -0.235610 0.252072 -0.080609
v -0.235610 0.209129 -0.292367
v -0.235610 0.268031 -0.544430
v -0.235610 0.260051 -0.312520
v 0.422622 0.279055 0.342908
v 0.471045 0.321614 -0.557865
v 0.471045 0.214448 -0.530996
v 0.422622 0.193169 0.423517
v 0.422622 0.268416 0.568102
v 0.422622 0.187849 0.662145
v 0.422622 0.236112 0.383213
v 0.422622 0.228133 0.615124
v 0.471045 0.310974 -0.332672
v 0.471045 0.209129 -0.292367
v 0.471045 0.268031 -0.544430
v 0.471045 0.260051 -0.312520
v -0.471045 0.321614 -0.557865
v -0.424292 0.279055 0.342908
v -0.424292 0.193169 0.423517
v -0.471045 0.214448 -0.530996
v -0.424292 0.268416 0.568102
v -0.424292 0.187849 0.662145
v -0.424292 0.236112 0.383213
v -0.424292 0.228133 0.615124
v -0.471045 0.310974 -0.332672
v -0.471045 0.209129 -0.292367
v -0.471045 0.268031 -0.544430
v -0.471045 0.260051 -0.312520
v 0.428137 0.400127 0.501189
v 0.428137 0.396296 0.540085
v 0.428137 0.384950 0.577487
v 0.428137 0.366526 0.611957
v 0.428137 0.341731 0.642170
v 0.428137 0.311518 0.666965
v 0.428137 0.277048 0.685389
v 0.428137 0.239646 0.696735
v 0.428137 0.200750 0.700566
v 0.428137 0.161853 0.696735
v 0.428137 0.124451 0.685390
v 0.428137 0.089982 0.666965
v 0.428137 0.059769 0.642170
v 0.428137 0.034974 0.611957
v 0.428137 0.016549 0.577487
v 0.428137 0.005203 0.540085
v 0.428137 0.001372 0.501189
v 0.428137 0.005203 0.462292
v 0.428137 0.016549 0.424890
v 0.428137 0.034974 0.390421
v 0.428137 0.059769 0.360208
v 0.428137 0.089982 0.335413
v 0.428137 0.124451 0.316988
v 0.428137 0.161853 0.305642
v 0.428137 0.200750 0.301811
v 0.428137 0.239646 0.305642
v 0.428137 0.277048 0.316988
v 0.428137 0.311518 0.335413
v 0.428137 0.341731 0.360208
v 0.428137 0.366526 0.390421
v 0.428137 0.384950 0.424890
v 0.428137 0.396296 0.462292
v 0.473217 0.400127 -0.428373
v 0.473217 0.396296 -0.389476
v 0.473217 0.384950 -0.352074
v 0.473217 0.366526 -0.317605
v 0.473217 0.341731 -0.287392
v 0.473217 0.311518 -0.262596
v 0.473217 0.277048 -0.244172
v 0.473217 0.239646 -0.232826
v 0.473217 0.200750 -0.228995
v 0.473217 0.161853 -0.232826
v 0.473217 0.124451 -0.244172
v 0.473217 0.089982 -0.262596
v 0.473217 0.059769 -0.287392
v 0.473217 0.034974 -0.317605
v 0.473217 0.016549 -0.352074
v 0.473217 0.005203 -0.389476
v 0.473217 0.001372 -0.428373
v 0.473217 0.005203 -0.467269
v 0.473217 0.016549 -0.504671
v 0.473217 0.034974 -0.539141
v 0.473217 0.059769 -0.569354
v 0.473217 0.089982 -0.594149
v 0.473217 0.124451 -0.612573
v 0.473217 0.161853 -0.623919
v 0.473217 0.200750 -0.627750
v 0.473217 0.239646 -0.623919
v 0.473217 0.277048 -0.612573
v 0.473217 0.311518 -0.594149
v 0.473217 0.341731 -0.569354
v 0.473217 0.366526 -0.539141
v 0.473217 0.384950 -0.504671
v 0.473217 0.396296 -0.467269
v -0.428276 0.400127 0.501189
v -0.428276 0.396296 0.540085
v -0.428276 0.384950 0.577487
v -0.428276 0.366526 0.611957
v -0.428276 0.341731 0.642170
v -0.428276 0.311518 0.666965
v -0.428276 0.277048 0.685389
v -0.428276 0.239646 0.696735
v -0.428276 0.200750 0.700566
v -0.428276 0.161853 0.696735
v -0.428276 0.124451 0.685390
v -0.428276 0.089982 0.666965
v -0.428276 0.059769 0.642170
v -0.428276 0.034974 0.611957
v -0.428276 0.016549 0.577487
v -0.428276 0.005203 0.540085
v -0.428276 0.001372 0.501189
v -0.428276 0.005203 0.462292
v -0.428276 0.016549 0.424890
v -0.428276 0.034974 0.390421
v -0.428276 0.059769 0.360208
v -0.428276 0.089982 0.335413
v -0.428276 0.124451 0.316988
v -0.428276 0.161853 0.305642
v -0.428276 0.200750 0.301811
v -0.428276 0.239646 0.305642
v -0.428276 0.277048 0.316988
v -0.428276 0.311518 0.335413
v -0.428276 0.341731 0.360208
v -0.428276 0.366526 0.390421
v -0.428276 0.384950 0.424890
v -0.428276 0.396296 0.462292
v -0.472552 0.400127 -0.428373
v -0.472552 0.396296 -0.389476
v -0.472552 0.384950 -0.352074
v -0.472552 0.366526 -0.317605
v -0.472552 0.341731 -0.287392
v -0.472552 0.311518 -0.262596
v -0.472552 0.277048 -0.244172
v -0.472552 0.239646 -0.232826
v -0.472552 0.200750 -0.228995
v -0.472552 0.161853 -0.232826
v -0.472552 0.124451 -0.244172
v -0.472552 0.089982 -0.262596
v -0.472552 0.059769 -0.287392
v -0.472552 0.034974 -0.317605
v -0.472552 0.016549 -0.352074
v -0.472552 0.005203 -0.389476
v -0.472552 0.001372 -0.428373
v -0.472552 0.005203 -0.467269
v -0.472552 0.016549 -0.504671
v -0.472552 0.034974 -0.539141
v -0.472552 0.059769 -0.569354
v -0.472552 0.089982 -0.594149
v -0.472552 0.124451 -0.612573
v -0.472552 0.161853 -0.623919
v -0.472552 0.200750 -0.627750
v -0.472552 0.239646 -0.623919
v -0.472552 0.277048 -0.612573
v -0.472552 0.311518 -0.594149
v -0.472552 0.341731 -0.569354
v -0.472552 0.366526 -0.539141
v -0.472552 0.384950 -0.504671
v -0.472552 0.396296 -0.467269
vn -0.0000 0.2141 0.4207
vn 0.2356 -0.0000 -0.0000
vn -0.0000 0.0746 0.9564
vn -0.0000 -0.2356 -0.0000
vn -0.0000 -0.0000 -1.0083
vn -0.2356 -0.0000 -0.0000
vn -0.0000 -0.2345 -0.0958
vn -0.0000 -0.0138 -1.0065
vn -0.0000 0.0217 1.0040
vn -0.0000 0.2309 0.1998
vn -0.0000 0.0620 0.9727
vn -0.0000 -0.0505 -0.9848
vn 0.2244 -0.0000 0.3067
vn -0.0000 0.2356 -0.0000
vt 0.625000 0.500000
vt 0.375000 0.500000
vt 0.625000 0.750000
vt 0.375000 0.750000
vt 0.875000 0.500000
vt 0.625000 0.250000
vt 0.125000 0.500000
vt 0.375000 0.250000
vt 0.875000 0.750000
vt 0.625000 1.000000
vt 0.625000 0.000000
vt 0.375000 0.000000
vt 0.125000 0.750000
vt 0.375000 1.000000
vt 0.500000 0.000000
vt 0.500000 1.000000
vt 0.500000 0.750000
vt 0.750000 0.750000
vt 0.625000 0.875000
vt 0.250000 0.750000
vt 0.375000 0.875000
vt 0.500000 0.875000
vt 0.562500 0.000000
vt 0.562500 1.000000
vt 0.437500 0.750000
vt 0.812500 0.750000
vt 0.625000 0.937500
vt 0.312500 0.750000
vt 0.375000 0.812500
vt 0.437500 0.000000
vt 0.437500 1.000000
vt 0.562500 0.750000
vt 0.687500 0.750000
vt 0.625000 0.812500
vt 0.187500 0.750000
vt 0.375000 0.937500
vt 0.500000 0.937500
vt 0.500000 0.812500
vt 0.437500 0.875000
vt 0.562500 0.875000
vt 0.562500 0.812500
vt 0.437500 0.812500
vt 0.437500 0.937500
vt 0.562500 0.937500
vt 0.250000 0.500000
vt 0.375000 0.375000
vt 0.500000 0.500000
vt 0.500000 0.250000
vt 0.750000 0.500000
vt 0.625000 0.375000
vt 0.500000 0.375000
vt 0.187500 0.500000
vt 0.375000 0.312500
vt 0.437500 0.500000
vt 0.437500 0.250000
vt 0.687500 0.500000
vt 0.625000 0.437500
vt 0.312500 0.500000
vt 0.375000 0.437500
vt 0.562500 0.500000
vt 0.562500 0.250000
vt 0.812500 0.500000
vt 0.625000 0.312500
vt 0.500000 0.437500
vt 0.500000 0.312500
vt 0.437500 0.375000
vt 0.562500 0.375000
vt 0.562500 0.312500
vt 0.437500 0.312500
vt 0.437500 0.437500
vt 0.562500 0.437500
vt 0.468750 0.000000
vt 0.468750 1.000000
vt 0.500000 0.968750
vt 0.437500 0.968750
vt 0.468750 0.937500
vt 0.468750 0.968750
vt 0.468750 0.250000
vt 0.500000 0.281250
vt 0.437500 0.281250
vt 0.468750 0.312500
vt 0.468750 0.281250
vt 0.500000 0.843750
vt 0.468750 0.875000
vt 0.437500 0.843750
vt 0.468750 0.812500
vt 0.468750 0.843750
vt 0.500000 0.406250
vt 0.468750 0.375000
vt 0.437500 0.406250
vt 0.468750 0.437500
vt 0.468750 0.406250
vt 0.500000 0.937500
vt 0.500000 0.812500
vt 0.437500 0.812500
vt 0.437500 0.937500
vt 0.500000 0.968750
vt 0.437500 0.968750
vt 0.468750 0.937500
vt 0.468750 0.968750
vt 0.500000 0.843750
vt 0.437500 0.843750
vt 0.468750 0.812500
vt 0.468750 0.843750
vt 0.500000 0.437500
vt 0.500000 0.312500
vt 0.437500 0.312500
vt 0.437500 0.437500
vt 0.500000 0.281250
vt 0.437500 0.281250
vt 0.468750 0.312500
vt 0.468750 0.281250
vt 0.500000 0.406250
vt 0.437500 0.406250
vt 0.468750 0.437500
vt 0.468750 0.406250
vt 0.000000 0.000000
vt 0.000000 0.000000
vt 0.000000 0.000000
vt 0.000000 0.000000
vt 0.000000 0.000000
vt 0.000000 0.000000
vt 0.000000 0.000000
vt 0.000000 0.000000
vt 0.000000 0.000000
vt 0.000000 0.000000
vt 0.000000 0.000000
vt 0.000000 0.000000
vt 0.000000 0.000000
vt 0.000000 0.000000
vt 0.000000 0.000000
vt 0.000000 0.000000
vt 0.000000 0.000000
vt 0.000000 0.000000
vt 0.000000 0.000000
vt 0.000000 0.000000
vt 0.000000 0.000000
vt 0.000000 0.000000
vt 0.000000 0.000000
vt 0.000000 0.000000
vt 0.000000 0.000000
vt 0.000000 0.000000
vt 0.000000 0.000000
vt 0.000000 0.000000
vt 0.000000 0.000000
vt 0.000000 0.000000
vt 0.000000 0.000000
vt 0.000000 0.000000
vt 0.000000 0.000000
vt 0.000000 0.000000
vt 0.000000 0.000000
vt 0.000000 0.000000
vt 0.000000 0.000000
vt 0.000000 0.000000
vt 0.000000 0.000000
vt 0.000000 0.000000
vt 0.000000 0.000000
vt 0.000000 0.000000
vt 0.000000 0.000000
vt 0.000000 0.000000
vt 0.000000 0.000000
vt 0.000000 0.000000
vt 0.000000 0.000000
vt 0.000000 0.000000
vt 0.000000 0.000000
vt 0.000000 0.000000
vt 0.000000 0.000000
vt 0.000000 0.000000
vt 0.000000 0.000000
vt 0.000000 0.000000
vt 0.000000 0.000000
vt 0.000000 0.000000
vt 0.000000 0.000000
vt 0.000000 0.000000
vt 0.000000 0.000000
vt 0.000000 0.000000
vt 0.000000 0.000000
vt 0.000000 0.000000
vt 0.000000 0.000000
vt 0.000000 0.000000
vt 0.000000 0.000000
vt 0.000000 0.000000
vt 0.000000 0.000000
vt 0.000000 0.000000
vt 0.000000 0.000000
vt 0.000000 0.000000
vt 0.000000 0.000000
vt 0.000000 0.000000
vt 0.000000 0.000000
vt 0.000000 0.000000
vt 0.000000 0.000000
vt 0.000000 0.000000
vt 0.000000 0.000000
vt 0.000000 0.000000
vt 0.000000 0.000000
vt 0.000000 0.000000
vt 0.000000 0.000000
vt 0.000000 0.000000
vt 0.000000 0.000000
vt 0.000000 0.000000
vt 0.000000 0.000000
vt 0.000000 0.000000
vt 0.000000 0.000000
vt 0.000000 0.000000
vt 0.000000 0.000000
vt 0.000000 0.000000
vt 0.000000 0.000000
vt 0.000000 0.000000
vt 0.000000 0.000000
vt 0.000000 0.000000
vt 0.000000 0.000000
vt 0.000000 0.000000
vt 0.000000 0.000000
vt 0.000000 0.000000
vt 0.000000 0.000000
vt 0.000000 0.000000
vt 0.000000 0.000000
vt 0.000000 0.000000
vt 0.000000 0.000000
vt 0.000000 0.000000
vt 0.000000 0.000000
vt 0.000000 0.000000
vt 0.000000 0.000000
vt 0.000000 0.000000
vt 0.000000 0.000000
vt 0.000000 0.000000
vt 0.000000 0.000000
vt 0.000000 0.000000
vt 0.000000 0.000000
vt 0.000000 0.000000
vt 0.000000 0.000000
vt 0.000000 0.000000
vt 0.000000 0.000000
vt 0.000000 0.000000
vt 0.000000 0.000000
vt 0.000000 0.000000
vt 0.000000 0.000000
vt 0.000000 0.000000
vt 0.000000 0.000000
vt 0.000000 0.000000
vt 0.000000 0.000000
vt 0.000000 0.000000
vt 0.000000 0.000000
vt 0.000000 0.000000
s 0
usemtl Material
f 42/62/1 16/26/1 11/18/1
f 29/44/2 7/10/2 14/24/2
f 9/15/3 56/78/3 37/55/3
f 30/45/4 4/4/4 17/28/4
f 31/47/5 3/3/5 19/32/5
f 38/57/6 40/60/6 50/71/6
f 55/77/2 9/16/2 51/73/2
f 65/87/2 13/22/2 62/84/2
f 26/41/2 11/19/2 25/40/2
f 26/41/2 13/22/2 61/83/2
f 10/17/2 26/41/2 23/38/2
f 19/32/2 20/34/2 26/41/2
f 27/42/2 63/85/2 12/21/2
f 4/4/2 27/42/2 17/29/2
f 10/17/2 64/86/2 27/42/2
f 28/43/2 18/31/2 8/14/2
f 12/21/2 28/43/2 21/36/2
f 62/84/2 22/37/2 54/76/2
f 29/44/2 9/16/2 52/74/2
f 13/22/2 29/44/2 22/37/2
f 25/40/2 16/27/2 29/44/2
f 69/91/6 31/47/6 36/54/6
f 59/81/6 34/51/6 67/89/6
f 42/63/6 46/67/6 47/68/6
f 47/68/6 34/51/6 44/65/6
f 41/61/6 44/65/6 57/79/6
f 5/6/6 47/68/6 41/61/6
f 48/69/6 30/46/6 35/53/6
f 37/55/6 58/80/6 35/53/6
f 68/90/7 86/108/7 49/70/7
f 49/70/6 2/2/6 39/59/6
f 45/66/6 68/90/6 39/59/6
f 69/91/8 83/105/8 43/64/8
f 50/71/6 31/47/6 43/64/6
f 46/67/6 43/64/6 66/88/6
f 33/50/6 50/71/6 46/67/6
f 53/75/2 51/73/2 18/31/2
f 65/87/9 79/101/9 61/83/9
f 61/83/10 72/94/10 23/38/10
f 70/92/9 92/114/9 68/90/9
f 56/78/6 58/80/6 37/55/6
f 32/48/6 60/82/6 56/78/6
f 63/85/2 62/84/2 24/39/2
f 28/43/7 76/98/7 53/75/7
f 23/38/8 81/103/8 64/86/8
f 58/80/7 85/107/7 48/69/7
f 67/89/6 68/90/6 45/66/6
f 34/51/6 70/92/6 67/89/6
f 74/96/2 78/100/2 76/98/2
f 77/99/2 75/97/2 78/100/2
f 73/95/2 82/104/2 80/102/2
f 81/103/2 79/101/2 82/104/2
f 64/86/8 73/95/8 27/42/8
f 53/75/11 78/100/11 55/77/11
f 22/37/12 77/99/12 54/76/12
f 54/76/12 74/96/12 28/43/12
f 55/77/11 75/97/11 52/74/11
f 52/74/10 71/93/10 22/37/10
f 27/42/7 80/102/7 63/85/7
f 63/85/9 82/104/9 65/87/9
f 87/109/6 89/111/6 90/112/6
f 91/113/6 93/115/6 94/116/6
f 90/112/6 85/107/6 88/110/6
f 94/116/6 86/108/6 92/114/6
f 66/88/9 94/116/9 70/92/9
f 60/82/11 88/110/11 58/80/11
f 43/64/10 91/113/10 66/88/10
f 59/81/12 84/106/12 44/65/12
f 48/69/12 89/111/12 59/81/12
f 44/65/10 87/109/10 57/79/10
f 57/79/11 90/112/11 60/82/11
f 49/70/8 93/115/8 69/91/8
f 111/133/2 119/141/2 95/117/2
f 143/165/2 151/173/2 127/149/2
f 175/197/2 183/205/2 159/181/2
f 207/229/2 215/237/2 191/213/2
f 3/3/1 1/1/1 38/56/1
f 38/56/2 33/49/2 42/62/2
f 20/33/1 3/3/1 38/56/1
f 11/18/1 20/33/1 38/56/1
f 42/62/1 5/5/1 7/9/1
f 11/18/1 38/56/1 42/62/1
f 42/62/1 7/9/1 16/26/1
f 29/44/2 16/27/2 7/10/2
f 6/8/3 8/12/3 18/30/3
f 18/30/13 51/72/13 9/15/13
f 14/23/3 7/11/3 5/6/3
f 6/8/3 18/30/3 9/15/3
f 9/15/3 14/23/3 5/6/3
f 41/61/2 32/48/2 56/78/2
f 9/15/3 5/6/3 41/61/3
f 37/55/3 6/8/3 9/15/3
f 9/15/3 41/61/3 56/78/3
f 8/13/4 6/7/4 35/52/4
f 30/45/14 39/58/14 2/2/14
f 8/13/4 35/52/4 30/45/4
f 17/28/14 12/20/14 21/35/14
f 21/35/4 8/13/4 30/45/4
f 30/45/4 2/2/4 4/4/4
f 17/28/4 21/35/4 30/45/4
f 4/4/5 2/2/5 36/54/5
f 31/47/14 40/60/14 1/1/14
f 4/4/5 36/54/5 31/47/5
f 19/32/14 10/17/14 15/25/14
f 15/25/5 4/4/5 31/47/5
f 31/47/5 1/1/5 3/3/5
f 19/32/5 15/25/5 31/47/5
f 38/57/6 1/1/6 40/60/6
f 55/77/2 52/74/2 9/16/2
f 65/87/2 61/83/2 13/22/2
f 26/41/2 20/34/2 11/19/2
f 61/83/2 23/38/2 26/41/2
f 26/41/2 25/40/2 13/22/2
f 10/17/2 19/32/2 26/41/2
f 19/32/2 3/3/2 20/34/2
f 12/21/2 17/29/2 27/42/2
f 63/85/2 24/39/2 12/21/2
f 4/4/2 15/25/2 27/42/2
f 27/42/2 15/25/2 10/17/2
f 10/17/2 23/38/2 64/86/2
f 8/14/2 21/36/2 28/43/2
f 28/43/2 53/75/2 18/31/2
f 12/21/2 24/39/2 28/43/2
f 28/43/2 24/39/2 62/84/2
f 62/84/2 13/22/2 22/37/2
f 54/76/2 28/43/2 62/84/2
f 52/74/2 22/37/2 29/44/2
f 29/44/2 14/24/2 9/16/2
f 13/22/2 25/40/2 29/44/2
f 25/40/2 11/19/2 16/27/2
f 36/54/6 49/70/6 69/91/6
f 69/91/6 43/64/6 31/47/6
f 45/66/6 48/69/6 59/81/6
f 59/81/6 44/65/6 34/51/6
f 67/89/6 45/66/6 59/81/6
f 42/63/6 33/50/6 46/67/6
f 47/68/6 46/67/6 34/51/6
f 57/79/6 32/48/6 41/61/6
f 41/61/6 47/68/6 44/65/6
f 5/6/6 42/63/6 47/68/6
f 48/69/6 45/66/6 30/46/6
f 35/53/6 6/8/6 37/55/6
f 58/80/6 48/69/6 35/53/6
f 68/90/7 92/114/7 86/108/7
f 49/70/6 36/54/6 2/2/6
f 39/59/6 30/46/6 45/66/6
f 68/90/6 49/70/6 39/59/6
f 69/91/8 93/115/8 83/105/8
f 50/71/6 40/60/6 31/47/6
f 66/88/6 34/51/6 46/67/6
f 46/67/6 50/71/6 43/64/6
f 33/50/6 38/57/6 50/71/6
f 53/75/2 55/77/2 51/73/2
f 65/87/9 82/104/9 79/101/9
f 61/83/10 79/101/10 72/94/10
f 70/92/9 94/116/9 92/114/9
f 56/78/6 60/82/6 58/80/6
f 32/48/6 57/79/6 60/82/6
f 63/85/2 65/87/2 62/84/2
f 28/43/7 74/96/7 76/98/7
f 23/38/8 72/94/8 81/103/8
f 58/80/7 88/110/7 85/107/7
f 67/89/6 70/92/6 68/90/6
f 34/51/6 66/88/6 70/92/6
f 74/96/2 77/99/2 78/100/2
f 77/99/2 71/93/2 75/97/2
f 73/95/2 81/103/2 82/104/2
f 81/103/2 72/94/2 79/101/2
f 64/86/8 81/103/8 73/95/8
f 53/75/11 76/98/11 78/100/11
f 22/37/12 71/93/12 77/99/12
f 54/76/12 77/99/12 74/96/12
f 55/77/11 78/100/11 75/97/11
f 52/74/10 75/97/10 71/93/10
f 27/42/7 73/95/7 80/102/7
f 63/85/9 80/102/9 82/104/9
f 87/109/6 84/106/6 89/111/6
f 91/113/6 83/105/6 93/115/6
f 90/112/6 89/111/6 85/107/6
f 94/116/6 93/115/6 86/108/6
f 66/88/9 91/113/9 94/116/9
f 60/82/11 90/112/11 88/110/11
f 43/64/10 83/105/10 91/113/10
f 59/81/12 89/111/12 84/106/12
f 48/69/12 85/107/12 89/111/12
f 44/65/10 84/106/10 87/109/10
f 57/79/11 87/109/11 90/112/11
f 49/70/8 86/108/8 93/115/8
f 95/117/2 96/118/2 97/119/2
f 97/119/2 98/120/2 99/121/2
f 99/121/2 100/122/2 101/123/2
f 101/123/2 102/124/2 103/125/2
f 103/125/2 104/126/2 105/127/2
f 105/127/2 106/128/2 107/129/2
f 107/129/2 108/130/2 109/131/2
f 109/131/2 110/132/2 111/133/2
f 111/133/2 112/134/2 113/135/2
f 113/135/2 114/136/2 115/137/2
f 115/137/2 116/138/2 117/139/2
f 117/139/2 118/140/2 119/141/2
f 119/141/2 120/142/2 121/143/2
f 121/143/2 122/144/2 123/145/2
f 123/145/2 124/146/2 125/147/2
f 125/147/2 126/148/2 95/117/2
f 95/117/2 97/119/2 99/121/2
f 99/121/2 101/123/2 103/125/2
f 103/125/2 105/127/2 107/129/2
f 107/129/2 109/131/2 111/133/2
f 111/133/2 113/135/2 115/137/2
f 115/137/2 117/139/2 119/141/2
f 119/141/2 121/143/2 123/145/2
f 123/145/2 125/147/2 95/117/2
f 95/117/2 99/121/2 103/125/2
f 103/125/2 107/129/2 111/133/2
f 111/133/2 115/137/2 119/141/2
f 119/141/2 123/145/2 95/117/2
f 95/117/2 103/125/2 111/133/2
f 127/149/2 128/150/2 129/151/2
f 129/151/2 130/152/2 131/153/2
f 131/153/2 132/154/2 133/155/2
f 133/155/2 134/156/2 135/157/2
f 135/157/2 136/158/2 137/159/2
f 137/159/2 138/160/2 139/161/2
f 139/161/2 140/162/2 141/163/2
f 141/163/2 142/164/2 143/165/2
f 143/165/2 144/166/2 145/167/2
f 145/167/2 146/168/2 147/169/2
f 147/169/2 148/170/2 149/171/2
f 149/171/2 150/172/2 151/173/2
f 151/173/2 152/174/2 153/175/2
f 153/175/2 154/176/2 155/177/2
f 155/177/2 156/178/2 157/179/2
f 157/179/2 158/180/2 127/149/2
f 127/149/2 129/151/2 131/153/2
f 131/153/2 133/155/2 135/157/2
f 135/157/2 137/159/2 139/161/2
f 139/161/2 141/163/2 143/165/2
f 143/165/2 145/167/2 147/169/2
f 147/169/2 149/171/2 151/173/2
f 151/173/2 153/175/2 155/177/2
f 155/177/2 157/179/2 127/149/2
f 127/149/2 131/153/2 135/157/2
f 135/157/2 139/161/2 143/165/2
f 143/165/2 147/169/2 151/173/2
f 151/173/2 155/177/2 127/149/2
f 127/149/2 135/157/2 143/165/2
f 159/181/2 160/182/2 161/183/2
f 161/183/2 162/184/2 163/185/2
f 163/185/2 164/186/2 165/187/2
f 165/187/2 166/188/2 167/189/2
f 167/189/2 168/190/2 169/191/2
f 169/191/2 170/192/2 171/193/2
f 171/193/2 172/194/2 173/195/2
f 173/195/2 174/196/2 175/197/2
f 175/197/2 176/198/2 177/199/2
f 177/199/2 178/200/2 179/201/2
f 179/201/2 180/202/2 181/203/2
f 181/203/2 182/204/2 183/205/2
f 183/205/2 184/206/2 185/207/2
f 185/207/2 186/208/2 187/209/2
f 187/209/2 188/210/2 189/211/2
f 189/211/2 190/212/2 159/181/2
f 159/181/2 161/183/2 163/185/2
f 163/185/2 165/187/2 167/189/2
f 167/189/2 169/191/2 171/193/2
f 171/193/2 173/195/2 175/197/2
f 175/197/2 177/199/2 179/201/2
f 179/201/2 181/203/2 183/205/2
f 183/205/2 185/207/2 187/209/2
f 187/209/2 189/211/2 159/181/2
f 159/181/2 163/185/2 167/189/2
f 167/189/2 171/193/2 175/197/2
f 175/197/2 179/201/2 183/205/2
f 183/205/2 187/209/2 159/181/2
f 159/181/2 167/189/2 175/197/2
f 191/213/2 192/214/2 193/215/2
f 193/215/2 194/216/2 195/217/2
f 195/217/2 196/218/2 197/219/2
f 197/219/2 198/220/2 199/221/2
f 199/221/2 200/222/2 201/223/2
f 201/223/2 202/224/2 203/225/2
f 203/225/2 204/226/2 205/227/2
f 205/227/2 206/228/2 207/229/2
f 207/229/2 208/230/2 209/231/2
f 209/231/2 210/232/2 211/233/2
f 211/233/2 212/234/2 213/235/2
f 213/235/2 214/236/2 215/237/2
f 215/237/2 216/238/2 217/239/2
f 217/239/2 218/240/2 219/241/2
f 219/241/2 220/242/2 221/243/2
f 221/243/2 222/244/2 191/213/2
f 191/213/2 193/215/2 195/217/2
f 195/217/2 197/219/2 199/221/2
f 199/221/2 201/223/2 203/225/2
f 203/225/2 205/227/2 207/229/2
f 207/229/2 209/231/2 211/233/2
f 211/233/2 213/235/2 215/237/2
f 215/237/2 217/239/2 219/241/2
f 219/241/2 221/243/2 191/213/2
f 191/213/2 195/217/2 199/221/2
f 199/221/2 203/225/2 207/229/2
f 207/229/2 211/233/2 215/237/2
f 215/237/2 219/241/2 191/213/2
f 191/213/2 199/221/2 207/229/2
