# Blender 3.1.0
# www.blender.org
mtllib Walls.mtl
o Walls
v -26.017799 2.204185 -22.300970
v -22.300970 2.204186 -26.017799
v -22.300968 0.000009 -26.017797
v -26.017797 0.000008 -22.300968
v 26.017799 2.204169 22.300970
v 22.300970 2.204169 26.017799
v 22.300968 -0.000009 26.017797
v 26.017797 -0.000008 22.300968
v -26.017799 2.204169 22.300970
v -22.300970 2.204169 26.017799
v -22.300968 -0.000009 26.017797
v -26.017797 -0.000008 22.300968
v 26.017799 0.000008 -20.442556
v 26.017799 0.000008 -22.300970
v 26.017799 0.000005 -16.725727
v 26.017799 0.000005 -18.584143
v 18.584143 0.000009 -26.017799
v 16.725727 0.000009 -26.017799
v 22.300970 0.000009 -26.017799
v 20.442556 0.000009 -26.017799
v -11.150485 0.000009 -26.017799
v -13.008899 0.000009 -26.017799
v -7.433657 0.000009 -26.017799
v -9.292070 0.000009 -26.017799
v 26.017799 -0.000004 9.292070
v 26.017799 -0.000003 7.433657
v 26.017799 -0.000004 13.008899
v 26.017799 -0.000004 11.150485
v 26.017799 -0.000008 22.300970
v -22.300970 0.000009 -26.017799
v 3.716829 0.000009 -26.017799
v 1.858413 0.000009 -26.017799
v 7.433657 0.000009 -26.017799
v 5.575242 0.000009 -26.017799
v 26.017799 0.000001 -5.575242
v 26.017799 0.000003 -7.433657
v 26.017799 0.000000 -1.858413
v 26.017799 0.000001 -3.716829
v 26.017799 0.000004 -13.008899
v 26.017799 0.000005 -14.867314
v 26.017799 0.000004 -9.292070
v 26.017799 0.000004 -11.150485
v 11.150485 0.000009 -26.017799
v 9.292070 0.000009 -26.017799
v 14.867314 0.000009 -26.017799
v 13.008899 0.000009 -26.017799
v -18.584143 0.000009 -26.017799
v -20.442556 0.000009 -26.017799
v -14.867314 0.000009 -26.017799
v -16.725727 0.000009 -26.017799
v 26.017799 -0.000005 16.725727
v 26.017799 -0.000005 14.867314
v 26.017799 -0.000008 20.442556
v 26.017799 -0.000005 18.584143
v 26.017799 -0.000000 1.858413
v 26.017799 0.000000 0.000000
v 26.017799 -0.000001 5.575242
v 26.017799 -0.000001 3.716829
v -3.716829 0.000009 -26.017799
v -5.575242 0.000009 -26.017799
v 0.000000 0.000009 -26.017799
v -1.858413 0.000009 -26.017799
v -26.017799 0.000004 -9.292070
v -26.017799 0.000004 -11.150485
v -26.017799 0.000003 -7.433657
v -26.017799 0.000000 -1.858413
v -26.017799 0.000001 -3.716829
v -26.017799 0.000000 0.000000
v -26.017799 0.000008 -22.300970
v -26.017799 0.000005 -16.725727
v -26.017799 0.000005 -18.584143
v -26.017799 0.000005 -14.867314
v -14.867314 -0.000009 26.017799
v -13.008899 -0.000009 26.017799
v -11.150485 -0.000009 26.017799
v -7.433657 -0.000009 26.017799
v -5.575242 -0.000009 26.017799
v -3.716829 -0.000009 26.017799
v -26.017799 -0.000008 20.442556
v -26.017799 -0.000005 18.584143
v -26.017799 -0.000008 22.300970
v -22.300970 -0.000009 26.017799
v -20.442556 -0.000009 26.017799
v -18.584143 -0.000009 26.017799
v -26.017799 -0.000001 5.575242
v -26.017799 -0.000001 3.716829
v -26.017799 -0.000003 7.433657
v -26.017799 -0.000004 13.008899
v -26.017799 -0.000004 11.150485
v -26.017799 -0.000005 14.867314
v 14.867314 -0.000009 26.017799
v 16.725727 -0.000009 26.017799
v 18.584143 -0.000009 26.017799
v 22.300970 -0.000009 26.017799
v 0.000000 -0.000009 26.017799
v 1.858413 -0.000009 26.017799
v 3.716829 -0.000009 26.017799
v 7.433657 -0.000009 26.017799
v 9.292070 -0.000009 26.017799
v 11.150485 -0.000009 26.017799
v 13.008899 -0.000009 26.017799
v 5.575242 -0.000009 26.017799
v 20.442556 -0.000009 26.017799
v -26.017799 -0.000004 9.292070
v -26.017799 -0.000000 1.858413
v -16.725727 -0.000009 26.017799
v -26.017799 -0.000005 16.725727
v -1.858413 -0.000009 26.017799
v -9.292070 -0.000009 26.017799
v -26.017799 0.000008 -20.442556
v -26.017799 0.000001 -5.575242
v -26.017799 0.000004 -13.008899
v -13.008899 2.204169 26.017799
v -11.150485 2.204169 26.017799
v -26.017799 2.204173 11.150485
v -26.017799 2.204173 13.008899
v -14.867314 2.204186 -26.017799
v -16.725727 2.204186 -26.017799
v -9.292070 2.204169 26.017799
v -7.433657 2.204169 26.017799
v -11.150485 2.204186 -26.017799
v -13.008899 2.204186 -26.017799
v 26.017799 2.204185 -20.442556
v 26.017799 2.204185 -22.300970
v -26.017799 2.204177 0.000000
v -26.017799 2.204177 1.858413
v -7.433657 2.204186 -26.017799
v -9.292070 2.204186 -26.017799
v 26.017799 2.204182 -16.725727
v 26.017799 2.204182 -18.584143
v -26.017799 2.204176 3.716829
v -26.017799 2.204176 5.575242
v 26.017799 2.204173 11.150485
v 26.017799 2.204174 9.292070
v 26.017799 2.204173 14.867314
v 26.017799 2.204173 13.008899
v -20.442556 2.204169 26.017799
v 26.017799 2.204181 -13.008899
v 26.017799 2.204182 -14.867314
v -18.584143 2.204169 26.017799
v -16.725727 2.204169 26.017799
v 26.017799 2.204181 -9.292070
v 26.017799 2.204181 -11.150485
v -26.017799 2.204185 -20.442556
v -26.017799 2.204182 -18.584143
v 16.725727 2.204186 -26.017799
v 14.867314 2.204186 -26.017799
v -26.017799 2.204182 -16.725727
v -26.017799 2.204182 -14.867314
v -26.017799 2.204173 14.867314
v -26.017799 2.204172 16.725727
v 20.442556 2.204186 -26.017799
v 18.584143 2.204186 -26.017799
v 9.292070 2.204186 -26.017799
v 7.433657 2.204186 -26.017799
v -26.017799 2.204172 18.584143
v -26.017799 2.204170 20.442556
v 26.017799 2.204172 18.584143
v 26.017799 2.204172 16.725727
v 13.008899 2.204186 -26.017799
v 11.150485 2.204186 -26.017799
v 26.017799 2.204170 20.442556
v 9.292070 2.204169 26.017799
v 11.150485 2.204169 26.017799
v -5.575242 2.204169 26.017799
v 13.008899 2.204169 26.017799
v 14.867314 2.204169 26.017799
v -3.716829 2.204169 26.017799
v -1.858413 2.204169 26.017799
v 1.858413 2.204169 26.017799
v 3.716829 2.204169 26.017799
v -20.442556 2.204186 -26.017799
v -26.017799 2.204180 -5.575241
v -26.017799 2.204178 -3.716828
v -14.867314 2.204169 26.017799
v 5.575242 2.204169 26.017799
v 7.433657 2.204169 26.017799
v 26.017799 2.204176 3.716829
v 26.017799 2.204177 1.858413
v -18.584143 2.204186 -26.017799
v -26.017799 2.204177 -1.858413
v 26.017799 2.204174 7.433658
v 26.017799 2.204176 5.575242
v -26.017799 2.204181 -13.008899
v -26.017799 2.204181 -11.150485
v -26.017799 2.204181 -9.292070
v -26.017799 2.204180 -7.433657
v -3.716829 2.204186 -26.017799
v -5.575242 2.204186 -26.017799
v 0.000000 2.204186 -26.017799
v -1.858413 2.204186 -26.017799
v 16.725727 2.204169 26.017799
v 18.584143 2.204169 26.017799
v 20.442556 2.204169 26.017799
v 3.716829 2.204186 -26.017799
v 1.858413 2.204186 -26.017799
v 5.575242 2.204186 -26.017799
v 26.017799 2.204178 -3.716828
v 26.017799 2.204180 -5.575241
v 26.017799 2.204177 0.000000
v 26.017799 2.204177 -1.858413
v -26.017799 2.204174 9.292070
v 0.000000 2.204169 26.017799
v -26.017799 2.204174 7.433658
v 26.017799 2.204180 -7.433657
v 22.300970 2.204186 -26.017799
v 22.300968 0.000009 -26.017797
v 11.150483 -0.000009 26.017797
v 9.292070 -0.000009 26.017797
v 14.867312 -0.000009 26.017797
v 13.008899 -0.000009 26.017797
v 3.716829 -0.000009 26.017797
v 1.858413 -0.000009 26.017797
v 7.433657 -0.000009 26.017797
v 5.575242 -0.000009 26.017797
v 18.584141 -0.000009 26.017797
v 16.725725 -0.000009 26.017797
v 20.442553 -0.000009 26.017797
v -26.017797 -0.000004 9.292070
v -26.017797 -0.000003 7.433657
v -26.017797 -0.000004 13.008899
v -26.017797 -0.000004 11.150483
v -26.017797 -0.000000 1.858413
v -26.017797 0.000000 0.000000
v -26.017797 -0.000001 5.575242
v -26.017797 -0.000001 3.716829
v -18.584141 -0.000009 26.017797
v -20.442553 -0.000009 26.017797
v -14.867312 -0.000009 26.017797
v -16.725725 -0.000009 26.017797
v -26.017797 -0.000005 16.725725
v -26.017797 -0.000005 14.867312
v -26.017797 -0.000008 20.442553
v -26.017797 -0.000005 18.584141
v -3.716829 -0.000009 26.017797
v -5.575242 -0.000009 26.017797
v 0.000000 -0.000009 26.017797
v -1.858413 -0.000009 26.017797
v -11.150483 -0.000009 26.017797
v -13.008899 -0.000009 26.017797
v -7.433657 -0.000009 26.017797
v -9.292070 -0.000009 26.017797
v -26.017797 0.000008 -20.442553
v -26.017797 0.000005 -16.725725
v -26.017797 0.000005 -18.584141
v -26.017797 0.000001 -5.575242
v -26.017797 0.000003 -7.433657
v -26.017797 0.000000 -1.858413
v -26.017797 0.000001 -3.716829
v -26.017797 0.000004 -13.008899
v -26.017797 0.000005 -14.867312
v -26.017797 0.000004 -9.292070
v -26.017797 0.000004 -11.150483
v 26.017797 0.000008 -22.300968
v -7.433657 0.000009 -26.017797
v -5.575242 0.000009 -26.017797
v -3.716829 0.000009 -26.017797
v 26.017797 -0.000001 5.575242
v 26.017797 -0.000001 3.716829
v 26.017797 -0.000003 7.433657
v 26.017797 -0.000008 20.442553
v 26.017797 -0.000005 18.584141
v -20.442553 0.000009 -26.017797
v -18.584141 0.000009 -26.017797
v 7.433657 0.000009 -26.017797
v 9.292070 0.000009 -26.017797
v 11.150483 0.000009 -26.017797
v 26.017797 0.000004 -9.292070
v 26.017797 0.000004 -11.150483
v 26.017797 0.000003 -7.433657
v 26.017797 0.000000 -1.858413
v 26.017797 0.000001 -3.716829
v 26.017797 0.000000 0.000000
v 0.000000 0.000009 -26.017797
v 1.858413 0.000009 -26.017797
v 3.716829 0.000009 -26.017797
v 26.017797 -0.000004 13.008899
v 26.017797 -0.000004 11.150483
v 26.017797 -0.000005 14.867312
v -14.867312 0.000009 -26.017797
v -13.008899 0.000009 -26.017797
v -11.150483 0.000009 -26.017797
v 14.867312 0.000009 -26.017797
v 16.725725 0.000009 -26.017797
v 18.584141 0.000009 -26.017797
v 26.017797 0.000005 -16.725725
v 26.017797 0.000005 -18.584141
v 26.017797 0.000005 -14.867312
v 26.017797 0.000008 -20.442553
v 20.442553 0.000009 -26.017797
v -9.292070 0.000009 -26.017797
v 26.017797 -0.000004 9.292070
v 5.575242 0.000009 -26.017797
v 26.017797 0.000001 -5.575242
v 26.017797 0.000004 -13.008899
v 13.008899 0.000009 -26.017797
v -16.725725 0.000009 -26.017797
v 26.017797 -0.000005 16.725725
v 26.017797 -0.000000 1.858413
v -1.858413 0.000009 -26.017797
vn -1.5307 -0.0000 -1.5307
vn 1.5307 -0.0000 1.5307
vn 1.5307 -0.0000 -1.5307
vn -0.0000 -0.0000 -2.1647
vn 2.1647 -0.0000 -0.0000
vn -0.0000 -0.0000 2.1647
vn -2.1647 -0.0000 -0.0000
vt 0.000000 0.000000
vt 0.062500 0.875000
vt 0.000000 0.000000
vt 0.125000 0.937500
vt 0.000000 0.000000
vt 0.000000 0.000000
vt 0.000000 0.000000
vt 0.937500 0.125000
vt 0.000000 0.000000
vt 0.875000 0.062500
vt 0.000000 0.000000
vt 0.000000 0.000000
vt 0.000000 0.000000
vt 0.062500 0.125000
vt 0.000000 0.000000
vt 0.125000 0.062500
vt 0.000000 0.000000
vt 0.000000 0.000000
vt 0.937500 0.843750
vt 0.937500 0.875000
vt 0.937500 0.781250
vt 0.937500 0.812500
vt 0.812500 0.937500
vt 0.781250 0.937500
vt 0.875000 0.937500
vt 0.843750 0.937500
vt 0.312500 0.937500
vt 0.281250 0.937500
vt 0.375000 0.937500
vt 0.343750 0.937500
vt 0.937500 0.343750
vt 0.937500 0.375000
vt 0.937500 0.281250
vt 0.937500 0.312500
vt 0.937500 0.125000
vt 0.125000 0.937500
vt 0.562500 0.937500
vt 0.531250 0.937500
vt 0.625000 0.937500
vt 0.593750 0.937500
vt 0.937500 0.593750
vt 0.937500 0.625000
vt 0.937500 0.531250
vt 0.937500 0.562500
vt 0.937500 0.718750
vt 0.937500 0.750000
vt 0.937500 0.656250
vt 0.937500 0.687500
vt 0.687500 0.937500
vt 0.656250 0.937500
vt 0.750000 0.937500
vt 0.718750 0.937500
vt 0.187500 0.937500
vt 0.156250 0.937500
vt 0.250000 0.937500
vt 0.218750 0.937500
vt 0.937500 0.218750
vt 0.937500 0.250000
vt 0.937500 0.156250
vt 0.937500 0.187500
vt 0.937500 0.468750
vt 0.937500 0.500000
vt 0.937500 0.406250
vt 0.937500 0.437500
vt 0.437500 0.937500
vt 0.406250 0.937500
vt 0.500000 0.937500
vt 0.468750 0.937500
vt 0.062500 0.656250
vt 0.062500 0.687500
vt 0.062500 0.625000
vt 0.062500 0.531250
vt 0.062500 0.562500
vt 0.062500 0.500000
vt 0.062500 0.875000
vt 0.062500 0.781250
vt 0.062500 0.812500
vt 0.062500 0.750000
vt 0.250000 0.062500
vt 0.281250 0.062500
vt 0.312500 0.062500
vt 0.375000 0.062500
vt 0.406250 0.062500
vt 0.437500 0.062500
vt 0.062500 0.156250
vt 0.062500 0.187500
vt 0.062500 0.125000
vt 0.125000 0.062500
vt 0.156250 0.062500
vt 0.187500 0.062500
vt 0.062500 0.406250
vt 0.062500 0.437500
vt 0.062500 0.375000
vt 0.062500 0.281250
vt 0.062500 0.312500
vt 0.062500 0.250000
vt 0.750000 0.062500
vt 0.781250 0.062500
vt 0.812500 0.062500
vt 0.875000 0.062500
vt 0.500000 0.062500
vt 0.531250 0.062500
vt 0.562500 0.062500
vt 0.625000 0.062500
vt 0.656250 0.062500
vt 0.687500 0.062500
vt 0.718750 0.062500
vt 0.593750 0.062500
vt 0.843750 0.062500
vt 0.062500 0.343750
vt 0.062500 0.468750
vt 0.218750 0.062500
vt 0.062500 0.218750
vt 0.468750 0.062500
vt 0.343750 0.062500
vt 0.062500 0.843750
vt 0.062500 0.593750
vt 0.062500 0.718750
vt 0.281250 0.062500
vt 0.312500 0.062500
vt 0.062500 0.312500
vt 0.062500 0.281250
vt 0.250000 0.937500
vt 0.218750 0.937500
vt 0.343750 0.062500
vt 0.375000 0.062500
vt 0.312500 0.937500
vt 0.281250 0.937500
vt 0.937500 0.843750
vt 0.937500 0.875000
vt 0.062500 0.500000
vt 0.062500 0.468750
vt 0.375000 0.937500
vt 0.343750 0.937500
vt 0.937500 0.781250
vt 0.937500 0.812500
vt 0.062500 0.437500
vt 0.062500 0.406250
vt 0.937500 0.312500
vt 0.937500 0.343750
vt 0.937500 0.250000
vt 0.937500 0.281250
vt 0.156250 0.062500
vt 0.937500 0.718750
vt 0.937500 0.750000
vt 0.187500 0.062500
vt 0.218750 0.062500
vt 0.937500 0.656250
vt 0.937500 0.687500
vt 0.062500 0.843750
vt 0.062500 0.812500
vt 0.781250 0.937500
vt 0.750000 0.937500
vt 0.062500 0.781250
vt 0.062500 0.750000
vt 0.062500 0.250000
vt 0.062500 0.218750
vt 0.843750 0.937500
vt 0.812500 0.937500
vt 0.656250 0.937500
vt 0.625000 0.937500
vt 0.062500 0.187500
vt 0.062500 0.156250
vt 0.937500 0.187500
vt 0.937500 0.218750
vt 0.718750 0.937500
vt 0.687500 0.937500
vt 0.937500 0.156250
vt 0.656250 0.062500
vt 0.687500 0.062500
vt 0.406250 0.062500
vt 0.718750 0.062500
vt 0.750000 0.062500
vt 0.437500 0.062500
vt 0.468750 0.062500
vt 0.531250 0.062500
vt 0.562500 0.062500
vt 0.156250 0.937500
vt 0.062500 0.593750
vt 0.062500 0.562500
vt 0.250000 0.062500
vt 0.593750 0.062500
vt 0.625000 0.062500
vt 0.937500 0.437500
vt 0.937500 0.468750
vt 0.187500 0.937500
vt 0.062500 0.531250
vt 0.937500 0.375000
vt 0.937500 0.406250
vt 0.062500 0.718750
vt 0.062500 0.687500
vt 0.062500 0.656250
vt 0.062500 0.625000
vt 0.437500 0.937500
vt 0.406250 0.937500
vt 0.500000 0.937500
vt 0.468750 0.937500
vt 0.781250 0.062500
vt 0.812500 0.062500
vt 0.843750 0.062500
vt 0.562500 0.937500
vt 0.531250 0.937500
vt 0.593750 0.937500
vt 0.937500 0.562500
vt 0.937500 0.593750
vt 0.937500 0.500000
vt 0.937500 0.531250
vt 0.062500 0.343750
vt 0.500000 0.062500
vt 0.062500 0.375000
vt 0.937500 0.625000
vt 0.000000 0.000000
vt 0.875000 0.937500
vt 0.000000 0.000000
s 0
usemtl Walls.003
f 2/3/1 4/6/1 1/1/1
f 6/9/2 8/12/2 5/7/2
f 10/15/3 12/18/3 9/13/3
s 1
f 74/80/4 114/120/4 75/81/4
f 89/95/5 116/122/5 88/94/5
f 49/55/6 118/124/6 50/56/6
f 109/115/4 120/126/4 76/82/4
f 21/27/6 122/128/6 22/28/6
f 13/19/7 124/130/7 14/20/7
f 68/74/5 126/132/5 105/111/5
f 23/29/6 128/134/6 24/30/6
f 15/21/7 130/136/7 16/22/7
f 86/92/5 132/138/5 85/91/5
f 28/34/7 134/140/7 25/31/7
f 52/58/7 136/142/7 27/33/7
f 82/88/4 137/143/4 83/89/4
f 39/45/7 139/145/7 40/46/7
f 84/90/4 141/147/4 106/112/4
f 41/47/7 143/149/7 42/48/7
f 110/116/5 145/151/5 71/77/5
f 18/24/6 147/153/6 45/51/6
f 70/76/5 149/155/5 72/78/5
f 90/96/5 151/157/5 107/113/5
f 20/26/6 153/159/6 17/23/6
f 44/50/6 155/161/6 33/39/6
f 80/86/5 157/163/5 79/85/5
f 54/60/7 159/165/7 51/57/7
f 46/52/6 161/167/6 43/49/6
f 29/35/7 162/168/7 53/59/7
f 99/105/4 164/170/4 100/106/4
f 76/82/4 165/171/4 77/83/4
f 101/107/4 167/173/4 91/97/4
f 78/84/4 169/175/4 108/114/4
f 96/102/4 171/177/4 97/103/4
f 48/54/6 2/4/6 30/36/6
f 111/117/5 174/180/5 67/73/5
f 73/79/4 113/119/4 74/80/4
f 102/108/4 177/183/4 98/104/4
f 58/64/7 179/185/7 55/61/7
f 50/56/6 180/186/6 47/53/6
f 66/72/5 125/131/5 68/74/5
f 75/81/4 119/125/4 109/115/4
f 22/28/6 117/123/6 49/55/6
f 57/63/7 182/188/7 183/189/7
f 24/30/6 121/127/6 21/27/6
f 112/118/5 185/191/5 64/70/5
f 25/31/7 182/188/7 26/32/7
f 63/69/5 187/193/5 65/71/5
f 27/33/7 133/139/7 28/34/7
f 59/65/6 189/195/6 60/66/6
f 61/67/6 191/197/6 62/68/6
f 92/98/4 193/199/4 93/99/4
f 103/109/4 6/10/4 94/100/4
f 69/75/5 144/150/5 110/116/5
f 71/77/5 148/154/5 70/76/5
f 51/57/7 135/141/7 52/58/7
f 54/60/7 162/168/7 158/164/7
f 31/37/6 196/202/6 32/38/6
f 98/104/4 163/169/4 99/105/4
f 33/39/6 197/203/6 34/40/6
f 100/106/4 166/172/4 101/107/4
f 35/41/7 198/204/7 199/205/7
f 56/62/7 201/207/7 37/43/7
f 104/110/5 115/121/5 89/95/5
f 95/101/4 170/176/4 96/102/4
f 65/71/5 173/179/5 111/117/5
f 88/94/5 150/156/5 90/96/5
f 97/103/4 176/182/4 102/108/4
f 55/61/7 200/206/7 56/62/7
f 67/73/5 181/187/5 66/72/5
f 57/63/7 178/184/7 58/64/7
f 13/19/7 130/136/7 123/129/7
f 105/111/5 131/137/5 86/92/5
f 40/46/7 129/135/7 15/21/7
f 72/78/5 184/190/5 112/118/5
f 85/91/5 204/210/5 87/93/5
f 64/70/5 186/192/5 63/69/5
f 60/66/6 127/133/6 23/29/6
f 62/68/6 188/194/6 59/65/6
f 83/89/4 140/146/4 84/90/4
f 42/48/7 138/144/7 39/45/7
f 106/112/4 175/181/4 73/79/4
f 91/97/4 192/198/4 92/98/4
f 36/42/7 142/148/7 41/47/7
f 93/99/4 194/200/4 103/109/4
f 206/212/3 14/20/3 207/214/3
f 17/23/6 146/152/6 18/24/6
f 107/113/5 156/162/5 80/86/5
f 19/25/6 152/158/6 20/26/6
f 43/49/6 154/160/6 44/50/6
f 79/85/5 9/14/5 81/87/5
f 45/51/6 160/166/6 46/52/6
f 32/38/6 190/196/6 61/67/6
f 34/40/6 195/201/6 31/37/6
f 77/83/4 168/174/4 78/84/4
f 36/42/7 199/205/7 205/211/7
f 108/114/4 203/209/4 95/101/4
f 37/43/7 198/204/7 38/44/7
f 87/93/5 202/208/5 104/110/5
f 47/53/6 172/178/6 48/54/6
s 0
f 2/3/1 3/5/1 4/6/1
f 6/9/2 7/11/2 8/12/2
f 10/15/3 11/17/3 12/18/3
s 1
f 74/80/4 113/119/4 114/120/4
f 89/95/5 115/121/5 116/122/5
f 49/55/6 117/123/6 118/124/6
f 109/115/4 119/125/4 120/126/4
f 21/27/6 121/127/6 122/128/6
f 13/19/7 123/129/7 124/130/7
f 68/74/5 125/131/5 126/132/5
f 23/29/6 127/133/6 128/134/6
f 15/21/7 129/135/7 130/136/7
f 86/92/5 131/137/5 132/138/5
f 28/34/7 133/139/7 134/140/7
f 52/58/7 135/141/7 136/142/7
f 82/88/4 10/16/4 137/143/4
f 39/45/7 138/144/7 139/145/7
f 84/90/4 140/146/4 141/147/4
f 41/47/7 142/148/7 143/149/7
f 110/116/5 144/150/5 145/151/5
f 18/24/6 146/152/6 147/153/6
f 70/76/5 148/154/5 149/155/5
f 90/96/5 150/156/5 151/157/5
f 20/26/6 152/158/6 153/159/6
f 44/50/6 154/160/6 155/161/6
f 80/86/5 156/162/5 157/163/5
f 54/60/7 158/164/7 159/165/7
f 46/52/6 160/166/6 161/167/6
f 29/35/7 5/8/7 162/168/7
f 99/105/4 163/169/4 164/170/4
f 76/82/4 120/126/4 165/171/4
f 101/107/4 166/172/4 167/173/4
f 78/84/4 168/174/4 169/175/4
f 96/102/4 170/176/4 171/177/4
f 48/54/6 172/178/6 2/4/6
f 111/117/5 173/179/5 174/180/5
f 73/79/4 175/181/4 113/119/4
f 102/108/4 176/182/4 177/183/4
f 58/64/7 178/184/7 179/185/7
f 50/56/6 118/124/6 180/186/6
f 66/72/5 181/187/5 125/131/5
f 75/81/4 114/120/4 119/125/4
f 22/28/6 122/128/6 117/123/6
f 57/63/7 26/32/7 182/188/7
f 24/30/6 128/134/6 121/127/6
f 112/118/5 184/190/5 185/191/5
f 25/31/7 134/140/7 182/188/7
f 63/69/5 186/192/5 187/193/5
f 27/33/7 136/142/7 133/139/7
f 59/65/6 188/194/6 189/195/6
f 61/67/6 190/196/6 191/197/6
f 92/98/4 192/198/4 193/199/4
f 103/109/4 194/200/4 6/10/4
f 69/75/5 1/2/5 144/150/5
f 71/77/5 145/151/5 148/154/5
f 51/57/7 159/165/7 135/141/7
f 54/60/7 53/59/7 162/168/7
f 31/37/6 195/201/6 196/202/6
f 98/104/4 177/183/4 163/169/4
f 33/39/6 155/161/6 197/203/6
f 100/106/4 164/170/4 166/172/4
f 35/41/7 38/44/7 198/204/7
f 56/62/7 200/206/7 201/207/7
f 104/110/5 202/208/5 115/121/5
f 95/101/4 203/209/4 170/176/4
f 65/71/5 187/193/5 173/179/5
f 88/94/5 116/122/5 150/156/5
f 97/103/4 171/177/4 176/182/4
f 55/61/7 179/185/7 200/206/7
f 67/73/5 174/180/5 181/187/5
f 57/63/7 183/189/7 178/184/7
f 13/19/7 16/22/7 130/136/7
f 105/111/5 126/132/5 131/137/5
f 40/46/7 139/145/7 129/135/7
f 72/78/5 149/155/5 184/190/5
f 85/91/5 132/138/5 204/210/5
f 64/70/5 185/191/5 186/192/5
f 60/66/6 189/195/6 127/133/6
f 62/68/6 191/197/6 188/194/6
f 83/89/4 137/143/4 140/146/4
f 42/48/7 143/149/7 138/144/7
f 106/112/4 141/147/4 175/181/4
f 91/97/4 167/173/4 192/198/4
f 36/42/7 205/211/7 142/148/7
f 93/99/4 193/199/4 194/200/4
f 206/212/3 124/130/3 14/20/3
f 17/23/6 153/159/6 146/152/6
f 107/113/5 151/157/5 156/162/5
f 19/25/6 206/213/6 152/158/6
f 43/49/6 161/167/6 154/160/6
f 79/85/5 157/163/5 9/14/5
f 45/51/6 147/153/6 160/166/6
f 32/38/6 196/202/6 190/196/6
f 34/40/6 197/203/6 195/201/6
f 77/83/4 165/171/4 168/174/4
f 36/42/7 35/41/7 199/205/7
f 108/114/4 169/175/4 203/209/4
f 37/43/7 201/207/7 198/204/7
f 87/93/5 204/210/5 202/208/5
f 47/53/6 180/186/6 172/178/6
l 258 259
l 266 267
l 258 260
l 274 275
l 286 287
l 286 288
l 254 289
l 282 291
l 278 292
l 274 300
l 283 296
l 209 214
l 221 222
l 225 226
l 229 230
l 221 232
l 233 234
l 213 237
l 237 238
l 262 298
l 241 242
l 261 262
l 265 266
l 277 278
l 277 279
l 281 282
l 270 294
l 285 290
l 265 293
l 269 295
l 273 299
l 257 300
l 210 211
l 214 215
l 210 217
l 246 247
l 246 249
l 250 251
l 250 253
l 256 257
l 8 261
l 260 292
l 268 269
l 268 270
l 280 281
l 284 285
l 276 293
l 288 295
l 280 297
l 11 228
l 7 218
l 219 220
l 219 222
l 223 224
l 223 226
l 227 228
l 227 230
l 231 232
l 231 234
l 235 236
l 235 238
l 239 240
l 239 242
l 243 245
l 264 297
l 247 252
l 255 256
l 3 263
l 263 264
l 271 272
l 271 273
l 275 276
l 283 284
l 287 289
l 207 290
l 255 291
l 267 296
l 279 298
l 259 299
l 272 294
l 208 209
l 208 211
l 229 240
l 212 213
l 212 215
l 216 217
l 216 218
l 220 225
l 12 233
l 236 241
l 4 243
l 244 245
l 224 248
l 248 249
l 244 251
l 252 253
